# xmcd
#
# Track frame offsets:
#	150
#	10095
#	22657
#	39960
#	49760
#	61270
#	72080
#	85037
#	94655
#
# Disc length: 1377
#
# Revision: 2
# Processed by: cddbd v1.5.1PL0 Copyright (c) Steve Scherf et al.
# Submitted via: audiograbber 1.80
# Normalized: r1:DSETVAR1,TDELIM( - )
#
DISCID=5a055f09
DTITLE=Various Artist - Country Greats - Western Classics
DYEAR=1900
DGENRE=
TTITLE0=Buck Owens - Rhythm 'N' Blues
TTITLE1=Faron Young - Four In The Morning
TTITLE2=Johnny Paycheck - Billy Jack Washburn
TTITLE3=Carl Perkins - This Old House
TTITLE4=Dolly Parton - Letter To Heaven
TTITLE5=Waylon Jennings - Sally Was A Good Old Girl
TTITLE6=Frankie Laine - Moonlight Gambler
TTITLE7=Willie Nelson - Building Heartaches
TTITLE8=Conway Twitty - Blues Is The Way I Feel
EXTD=
EXTT0=
EXTT1=
EXTT2=
EXTT3=
EXTT4=
EXTT5=
EXTT6=
EXTT7=
EXTT8=
PLAYORDER=
